<svg width="296" height="298" viewBox="0 0 296 298" fill="none" xmlns="http://www.w3.org/2000/svg">
<g id="logo">
<g id="border">
<g filter="url(#filter0_i_102_6)">
<path d="M0 40C0 17.9086 17.9086 0 40 0H256C278.091 0 296 17.9086 296 40V258C296 280.091 278.091 298 256 298H40C17.9086 298 0 280.091 0 258V40Z" fill="black"/>
</g>
<path d="M2 40C2 19.0132 19.0132 2 40 2H256C276.987 2 294 19.0132 294 40V258C294 278.987 276.987 296 256 296H40C19.0132 296 2 278.987 2 258V40Z" stroke="white" stroke-width="4"/>
</g>
<path id="fm" d="M129.954 136.903H98.3721V122.938H129.954V136.903ZM129.954 111.713H98.4795C96.5817 111.713 95.1494 112.196 94.1826 113.163C93.2158 114.094 92.7324 115.473 92.7324 117.299V181H78.7676V117.299C78.7676 114.9 79.0719 112.751 79.6807 110.854C80.2894 108.956 81.0951 107.291 82.0977 105.858C83.1361 104.39 84.3177 103.155 85.6426 102.152C86.9674 101.114 88.346 100.272 89.7783 99.6279C91.2464 98.9834 92.7145 98.5179 94.1826 98.2314C95.6507 97.9092 97.0472 97.748 98.3721 97.748H129.954V111.713ZM174.47 181H160.505V142.489C160.505 140.663 160.021 139.285 159.055 138.354C158.088 137.387 156.656 136.903 154.758 136.903H136.604V181H122.639V129.867C122.639 128.9 122.818 128.005 123.176 127.182C123.534 126.322 124.035 125.588 124.68 124.979C125.324 124.335 126.076 123.834 126.936 123.476C127.795 123.118 128.708 122.938 129.675 122.938H154.865C156.799 122.938 158.876 123.279 161.096 123.959C163.316 124.639 165.428 125.731 167.434 127.235V122.938H186.34C187.665 122.938 189.061 123.1 190.529 123.422C191.997 123.708 193.448 124.174 194.88 124.818C196.348 125.463 197.744 126.304 199.069 127.343C200.394 128.345 201.558 129.581 202.561 131.049C203.563 132.481 204.369 134.146 204.978 136.044C205.586 137.942 205.891 140.09 205.891 142.489V181H191.926V142.489C191.926 140.663 191.46 139.285 190.529 138.354C189.634 137.387 188.238 136.903 186.34 136.903H173.771C174.237 138.622 174.47 140.484 174.47 142.489V181Z" fill="white"/>
</g>
<defs>
<filter id="filter0_i_102_6" x="-1" y="0" width="297" height="298" filterUnits="userSpaceOnUse" color-interpolation-filters="sRGB">
<feFlood flood-opacity="0" result="BackgroundImageFix"/>
<feBlend mode="normal" in="SourceGraphic" in2="BackgroundImageFix" result="shape"/>
<feColorMatrix in="SourceAlpha" type="matrix" values="0 0 0 0 0 0 0 0 0 0 0 0 0 0 0 0 0 0 127 0" result="hardAlpha"/>
<feOffset dx="-1"/>
<feGaussianBlur stdDeviation="0.5"/>
<feComposite in2="hardAlpha" operator="arithmetic" k2="-1" k3="1"/>
<feColorMatrix type="matrix" values="0 0 0 0 0.121238 0 0 0 0 0.0826779 0 0 0 0 0.0826779 0 0 0 1 0"/>
<feBlend mode="normal" in2="shape" result="effect1_innerShadow_102_6"/>
</filter>
</defs>
</svg>
